<?xml version="1.0" encoding="utf-8"?>
<!-- Generator: Adobe Illustrator 18.0.0, SVG Export Plug-In . SVG Version: 6.00 Build 0)  -->
<!DOCTYPE svg PUBLIC "-//W3C//DTD SVG 1.1//EN" "http://www.w3.org/Graphics/SVG/1.1/DTD/svg11.dtd">
<svg version="1.1" xmlns="http://www.w3.org/2000/svg" xmlns:xlink="http://www.w3.org/1999/xlink" x="0px" y="0px"
	 viewBox="0 0 400 465" width="400em" height="465em" enable-background="new 0 0 400 465" xml:space="preserve">
<g id="Guides">
	<g id="Help">
	</g>
	<g id="Help_1_">
	</g>
</g>
<g id="Layer_3">
	<g>
		<path fill-rule="evenodd" clip-rule="evenodd" fill="#FFFFFF" d="M60.3,25.2c0.1,0.9,0.1,1.9,0.1,2.9c0,5.6-1.5,10.8-4.1,15.3
			c-6.1-3.9-8.3-0.5-14.6-0.9c-5.2-0.3-8.7-2.4-12.4-2.4c-5.7,0-9.9,3.1-9.6,8.4c0.2,3.5,2.2,7.2,5,9.5c-4.6-0.9-8.8-2.8-12.4-5.4
			c-2.1-6.4-3.9-18.8,11-19.9C14,30.5,7.6,36.3,8.6,49.3c-3.1-3.2-5.5-7-7-11.3C3.4,30.5,9,25.1,15.2,24.5c9.9-1,12.6,9.6,20.8,13.6
			C46.6,43.1,54.7,36.8,60.3,25.2 M58.4,17c0.6,1.6,1.1,3.2,1.4,4.9C57.7,27,52.2,36,46.4,37.4c-3.9,0.9-7.9,0.2-11.3-2
			c-5.4-3.9-8.9-11.3-17-12.7C8.9,21.2,2.9,29.9,0.7,34.6c-0.3-1.5-0.5-3-0.6-4.6c4.9-6.9,10.7-10.2,16.9-9.8
			c10.4,0.6,14.3,10.4,19.6,13.3C46.1,38.8,54.8,32.1,58.4,17z M44.3,1.2c5.4,2.9,9.9,7.4,12.7,12.9c-1,6.2-3.1,11.1-5.4,14.2
			c-2.1,2.7-4.4,4.1-6.6,4.7c-3.9,0.9-6.9-0.2-9.9-2.8C31,26.7,27.6,20,19.6,18.5C10.5,16.8,4.7,21.6,0,26.7
			c0.3-6.2,2.4-12,5.9-16.7c4.7-0.5,9.2,0.2,13.7,1.8c-2.8-2.4-6.9-3.7-11.3-4.7c2.9-3,6.3-5.4,10.2-7.1c6.6,5,9.6,12.3,12.2,19.1
			c2.2,5.6,6,12.2,11.5,11.2c2.5-0.5,7.4-1.3,8.3-10.2C51.1,14.2,47.6,5.9,44.3,1.2z"/>
		<path fill-rule="evenodd" clip-rule="evenodd" fill="#FFFFFF" d="M41.5,14.4c3.7,0,6.7,3,6.7,6.8c0,3.7-3,6.8-6.7,6.8
			c-3.7,0-6.7-3-6.7-6.8C34.8,17.4,37.8,14.4,41.5,14.4"/>
		<path fill-rule="evenodd" clip-rule="evenodd" fill="#FFFFFF" d="M28.3,42.1c3.7,0,6.7,3,6.7,6.8c0,3.7-3,6.8-6.7,6.8
			c-3.7,0-6.7-3-6.7-6.8C21.5,45.1,24.6,42.1,28.3,42.1"/>
		<path fill-rule="evenodd" clip-rule="evenodd" fill="#FFFFFF" d="M70.6,39.8H72c0.5,0,0.8,0,1-0.2c0.3-0.1,0.5-0.2,0.6-0.3
			c0.2-0.2,0.4-0.5,0.5-0.8c0.1-0.3,0.2-0.8,0.2-1.3c0-0.7-0.1-1.2-0.3-1.6c-0.2-0.4-0.5-0.6-0.8-0.8c-0.2-0.1-0.6-0.1-1.1-0.1h-1.4
			V39.8z M69.7,40.6v-6.7H72c0.5,0,0.9,0,1.2,0.1c0.4,0.1,0.7,0.2,1,0.5c0.3,0.3,0.6,0.7,0.8,1.2c0.2,0.5,0.3,1,0.3,1.6
			c0,0.5,0,1-0.2,1.3c-0.2,0.4-0.3,0.7-0.5,1c-0.2,0.2-0.4,0.5-0.6,0.6c-0.2,0.1-0.5,0.2-0.8,0.3c-0.3,0.1-0.7,0.1-1.1,0.1H69.7z"/>
		<rect x="80.7" y="33.8" fill-rule="evenodd" clip-rule="evenodd" fill="#FFFFFF" width="0.9" height="6.7"/>
		<path fill-rule="evenodd" clip-rule="evenodd" fill="#FFFFFF" d="M87.7,38.4l0.8-0.1c0,0.3,0.1,0.6,0.3,0.8
			c0.2,0.2,0.4,0.4,0.7,0.5c0.3,0.2,0.7,0.2,1,0.2c0.3,0,0.6,0,0.9-0.1c0.3-0.1,0.5-0.3,0.6-0.4c0.1-0.2,0.2-0.4,0.2-0.6
			c0-0.2-0.1-0.4-0.2-0.6c-0.1-0.2-0.3-0.3-0.6-0.4c-0.2-0.1-0.6-0.2-1.2-0.3c-0.6-0.1-1-0.3-1.3-0.4c-0.3-0.2-0.5-0.4-0.7-0.7
			C88,36.2,88,35.9,88,35.6c0-0.3,0.1-0.7,0.3-0.9c0.2-0.3,0.5-0.5,0.8-0.7c0.4-0.2,0.8-0.2,1.2-0.2c0.5,0,1,0.1,1.3,0.2
			c0.4,0.2,0.7,0.4,0.9,0.7c0.2,0.3,0.3,0.7,0.3,1L92,35.8c0-0.4-0.2-0.7-0.5-1c-0.3-0.2-0.7-0.3-1.2-0.3c-0.5,0-0.9,0.1-1.1,0.3
			c-0.3,0.2-0.4,0.5-0.4,0.7c0,0.2,0.1,0.4,0.3,0.6c0.2,0.2,0.6,0.3,1.3,0.5c0.7,0.2,1.2,0.3,1.5,0.4c0.4,0.2,0.7,0.4,0.8,0.7
			c0.2,0.3,0.3,0.6,0.3,1c0,0.3-0.1,0.7-0.3,1c-0.2,0.3-0.5,0.6-0.9,0.7c-0.4,0.2-0.8,0.3-1.3,0.3c-0.6,0-1.1-0.1-1.5-0.3
			c-0.4-0.2-0.7-0.4-1-0.8C87.8,39.3,87.7,38.9,87.7,38.4"/>
		<polygon fill-rule="evenodd" clip-rule="evenodd" fill="#FFFFFF" points="100.8,40.6 100.8,34.6 98.6,34.6 98.6,33.8 103.9,33.8 
			103.9,34.6 101.7,34.6 101.7,40.6 		"/>
		<path fill-rule="evenodd" clip-rule="evenodd" fill="#FFFFFF" d="M110.6,36.8h1.9c0.4,0,0.7,0,0.9-0.1c0.2-0.1,0.4-0.2,0.5-0.4
			c0.1-0.2,0.2-0.4,0.2-0.6c0-0.3-0.1-0.6-0.3-0.8c-0.2-0.2-0.6-0.3-1.1-0.3h-2.1V36.8z M109.7,40.6v-6.7h2.9c0.6,0,1.1,0.1,1.4,0.2
			c0.3,0.1,0.6,0.3,0.7,0.6c0.2,0.3,0.3,0.7,0.3,1c0,0.5-0.2,0.9-0.5,1.2c-0.3,0.3-0.8,0.5-1.5,0.7c0.2,0.1,0.4,0.2,0.5,0.3
			c0.3,0.3,0.5,0.5,0.8,0.9l1.1,1.8h-1.1l-0.9-1.4c-0.3-0.4-0.5-0.7-0.7-0.9c-0.2-0.2-0.3-0.4-0.5-0.5c-0.1-0.1-0.3-0.2-0.4-0.2
			c-0.1,0-0.3,0-0.5,0h-1v3H109.7z"/>
		<rect x="121.4" y="33.8" fill-rule="evenodd" clip-rule="evenodd" fill="#FFFFFF" width="0.9" height="6.7"/>
		<path fill-rule="evenodd" clip-rule="evenodd" fill="#FFFFFF" d="M133.5,38.2l0.9,0.2c-0.2,0.7-0.5,1.3-1,1.7
			c-0.5,0.4-1.1,0.6-1.8,0.6c-0.7,0-1.3-0.2-1.8-0.4c-0.5-0.3-0.8-0.7-1-1.3c-0.2-0.5-0.3-1.2-0.3-1.8c0-0.7,0.1-1.3,0.4-1.8
			c0.3-0.5,0.7-0.9,1.1-1.2c0.5-0.3,1-0.4,1.6-0.4c0.7,0,1.2,0.2,1.7,0.5c0.5,0.3,0.8,0.8,1,1.5l-0.9,0.2c-0.2-0.5-0.4-0.9-0.7-1.1
			c-0.3-0.2-0.7-0.3-1.1-0.3c-0.5,0-1,0.1-1.3,0.4c-0.3,0.2-0.6,0.6-0.7,1c-0.1,0.4-0.2,0.8-0.2,1.3c0,0.6,0.1,1.1,0.2,1.5
			c0.2,0.4,0.4,0.8,0.8,1c0.3,0.2,0.7,0.3,1.1,0.3c0.5,0,0.9-0.1,1.3-0.4C133.1,39.2,133.4,38.8,133.5,38.2"/>
		<polygon fill-rule="evenodd" clip-rule="evenodd" fill="#FFFFFF" points="142.1,40.6 142.1,34.6 139.8,34.6 139.8,33.8 
			145.2,33.8 145.2,34.6 142.9,34.6 142.9,40.6 		"/>
		<path fill-rule="evenodd" clip-rule="evenodd" fill="#FFFFFF" d="M162.7,38.2l0.9,0.2c-0.2,0.7-0.5,1.3-1,1.7
			c-0.5,0.4-1.1,0.6-1.8,0.6c-0.7,0-1.3-0.2-1.8-0.4c-0.5-0.3-0.8-0.7-1-1.3c-0.2-0.5-0.3-1.2-0.3-1.8c0-0.7,0.1-1.3,0.4-1.8
			c0.3-0.5,0.7-0.9,1.1-1.2c0.5-0.3,1-0.4,1.6-0.4c0.7,0,1.2,0.2,1.7,0.5c0.5,0.3,0.8,0.8,1,1.5l-0.9,0.2c-0.2-0.5-0.4-0.9-0.7-1.1
			c-0.3-0.2-0.7-0.3-1.1-0.3c-0.5,0-1,0.1-1.3,0.4c-0.3,0.2-0.6,0.6-0.7,1c-0.1,0.4-0.2,0.8-0.2,1.3c0,0.6,0.1,1.1,0.2,1.5
			c0.2,0.4,0.4,0.8,0.8,1c0.4,0.2,0.8,0.3,1.1,0.3c0.5,0,0.9-0.1,1.3-0.4C162.4,39.2,162.6,38.8,162.7,38.2"/>
		<path fill-rule="evenodd" clip-rule="evenodd" fill="#FFFFFF" d="M170.2,37.3c0,0.8,0.2,1.5,0.7,1.9c0.4,0.5,1,0.7,1.6,0.7
			c0.7,0,1.2-0.2,1.6-0.7c0.4-0.5,0.7-1.2,0.7-2c0-0.5-0.1-1-0.3-1.4c-0.2-0.4-0.4-0.7-0.8-1c-0.3-0.2-0.7-0.3-1.2-0.3
			c-0.6,0-1.2,0.2-1.6,0.7C170.4,35.6,170.2,36.3,170.2,37.3 M169.3,37.3c0-1.1,0.3-2,0.9-2.6c0.6-0.7,1.4-1,2.3-1
			c0.6,0,1.2,0.2,1.7,0.5c0.5,0.3,0.9,0.7,1.1,1.2c0.3,0.5,0.4,1.1,0.4,1.8c0,0.7-0.2,1.3-0.4,1.8c-0.3,0.5-0.7,0.9-1.2,1.2
			c-0.5,0.3-1,0.4-1.6,0.4c-0.7,0-1.2-0.2-1.7-0.5c-0.5-0.3-0.9-0.7-1.1-1.2C169.4,38.5,169.3,37.9,169.3,37.3z"/>
		<path fill-rule="evenodd" clip-rule="evenodd" fill="#FFFFFF" d="M186.1,33.8h0.9v3.9c0,0.7-0.1,1.2-0.2,1.6
			c-0.2,0.4-0.4,0.7-0.8,1c-0.4,0.2-0.9,0.3-1.6,0.3c-0.6,0-1.1-0.1-1.5-0.3c-0.4-0.2-0.7-0.5-0.9-1c-0.2-0.4-0.2-1-0.2-1.7v-3.9
			h0.9v3.9c0,0.6,0,1,0.2,1.3c0.1,0.3,0.3,0.5,0.6,0.6c0.3,0.2,0.6,0.2,1,0.2c0.7,0,1.1-0.2,1.4-0.4c0.3-0.3,0.4-0.9,0.4-1.7V33.8z"
			/>
		<polygon fill-rule="evenodd" clip-rule="evenodd" fill="#FFFFFF" points="193.3,40.6 193.3,33.8 194.2,33.8 197.7,39.2 
			197.7,33.8 198.6,33.8 198.6,40.6 197.7,40.6 194.2,35.3 194.2,40.6 		"/>
		<path fill-rule="evenodd" clip-rule="evenodd" fill="#FFFFFF" d="M209.7,38.2l0.9,0.2c-0.2,0.7-0.5,1.3-1,1.7
			c-0.5,0.4-1.1,0.6-1.8,0.6c-0.7,0-1.3-0.2-1.8-0.4c-0.5-0.3-0.8-0.7-1-1.3c-0.2-0.5-0.3-1.2-0.3-1.8c0-0.7,0.1-1.3,0.4-1.8
			c0.3-0.5,0.7-0.9,1.1-1.2c0.5-0.3,1-0.4,1.6-0.4c0.7,0,1.3,0.2,1.7,0.5c0.5,0.3,0.8,0.8,1,1.5l-0.9,0.2c-0.2-0.5-0.4-0.9-0.7-1.1
			c-0.3-0.2-0.7-0.3-1.1-0.3c-0.5,0-1,0.1-1.3,0.4c-0.3,0.2-0.6,0.6-0.7,1c-0.2,0.4-0.2,0.8-0.2,1.3c0,0.6,0.1,1.1,0.2,1.5
			c0.2,0.4,0.4,0.8,0.8,1c0.4,0.2,0.8,0.3,1.1,0.3c0.5,0,0.9-0.1,1.3-0.4C209.4,39.2,209.6,38.8,209.7,38.2"/>
		<rect x="216.7" y="33.8" fill-rule="evenodd" clip-rule="evenodd" fill="#FFFFFF" width="0.9" height="6.7"/>
		<polygon fill-rule="evenodd" clip-rule="evenodd" fill="#FFFFFF" points="224,40.6 224,33.8 224.9,33.8 224.9,39.8 228.1,39.8 
			228.1,40.6 		"/>
		<polygon fill-rule="evenodd" clip-rule="evenodd" fill="#FFFFFF" points="69.5,26 66.9,14.8 69.1,14.8 70.8,22.5 72.9,14.8 
			75.5,14.8 77.5,22.6 79.2,14.8 81.4,14.8 78.7,26 76.3,26 74.2,17.7 71.9,26 		"/>
		<path fill-rule="evenodd" clip-rule="evenodd" fill="#FFFFFF" d="M93.3,21.6l-1.5-4.2l-1.5,4.2H93.3z M97.4,26H95l-1-2.5h-4.4
			L88.7,26h-2.4l4.3-11.2H93L97.4,26z"/>
		<rect x="104.2" y="14.8" fill-rule="evenodd" clip-rule="evenodd" fill="#FFFFFF" width="2.2" height="11.2"/>
		<polygon fill-rule="evenodd" clip-rule="evenodd" fill="#FFFFFF" points="114.2,26 114.2,14.8 117.5,14.8 119.5,22.4 121.5,14.8 
			124.9,14.8 124.9,26 122.8,26 122.8,17.2 120.6,26 118.4,26 116.3,17.2 116.3,26 		"/>
		<path fill-rule="evenodd" clip-rule="evenodd" fill="#FFFFFF" d="M138.6,21.6l-1.6-4.2l-1.5,4.2H138.6z M142.8,26h-2.5l-1-2.5
			h-4.4L134,26h-2.4l4.3-11.2h2.3L142.8,26z"/>
		<polygon fill-rule="evenodd" clip-rule="evenodd" fill="#FFFFFF" points="149.6,26 149.6,14.8 151.8,14.8 151.8,19.8 156.4,14.8 
			159.4,14.8 155.2,19.2 159.6,26 156.7,26 153.7,20.8 151.8,22.6 151.8,26 		"/>
		<path fill-rule="evenodd" clip-rule="evenodd" fill="#FFFFFF" d="M172.3,21.6l-1.5-4.2l-1.5,4.2H172.3z M176.4,26H174l-1-2.5h-4.4
			l-0.9,2.5h-2.4l4.3-11.2h2.4L176.4,26z"/>
		<path fill-rule="evenodd" clip-rule="evenodd" fill="#FFFFFF" d="M185.5,19.5h1.7c1.1,0,1.8,0,2-0.1c0.2-0.1,0.5-0.3,0.6-0.5
			c0.2-0.2,0.2-0.5,0.2-0.9c0-0.4-0.1-0.7-0.3-0.9c-0.2-0.2-0.5-0.4-0.9-0.4c-0.2,0-0.7,0-1.6,0h-1.8V19.5z M183.2,26V14.8h4.7
			c1.2,0,2,0.1,2.6,0.3c0.5,0.2,1,0.6,1.3,1.1c0.4,0.5,0.5,1.1,0.5,1.8c0,0.8-0.2,1.5-0.7,2.1c-0.5,0.5-1.2,0.9-2.2,1
			c0.5,0.3,0.9,0.6,1.2,0.9c0.4,0.3,0.7,0.9,1.3,1.8l1.4,2.2h-2.7l-1.6-2.4c-0.6-0.9-1-1.4-1.2-1.6c-0.2-0.2-0.4-0.4-0.7-0.5
			s-0.6-0.1-1.1-0.1h-0.5V26H183.2z"/>
		<rect x="200" y="14.8" fill-rule="evenodd" clip-rule="evenodd" fill="#FFFFFF" width="2.3" height="11.2"/>
		<path fill-rule="evenodd" clip-rule="evenodd" fill="#FFFFFF" d="M212.2,19.5h1.7c1.1,0,1.8,0,2-0.1c0.3-0.1,0.5-0.3,0.7-0.5
			c0.1-0.2,0.2-0.5,0.2-0.9c0-0.4-0.1-0.7-0.3-0.9c-0.2-0.2-0.5-0.4-0.9-0.4c-0.2,0-0.7,0-1.6,0h-1.8V19.5z M210,26V14.8h4.7
			c1.2,0,2,0.1,2.6,0.3c0.5,0.2,1,0.6,1.3,1.1c0.4,0.5,0.5,1.1,0.5,1.8c0,0.8-0.3,1.5-0.7,2.1c-0.5,0.5-1.2,0.9-2.2,1
			c0.5,0.3,0.9,0.6,1.2,0.9c0.3,0.3,0.7,0.9,1.3,1.8L220,26h-2.7l-1.6-2.4c-0.5-0.9-1-1.4-1.2-1.6c-0.2-0.2-0.4-0.4-0.7-0.5
			c-0.2-0.1-0.6-0.1-1.1-0.1h-0.5V26H210z"/>
		<rect x="226.7" y="14.8" fill-rule="evenodd" clip-rule="evenodd" fill="#FFFFFF" width="2.3" height="11.2"/>
	</g>
	<path fill-rule="evenodd" clip-rule="evenodd" fill="#FFFFFF" d="M329.3,287c0.5,5.1,0.7,10.3,0.7,15.5c0,30.3-8.2,58.8-22.6,83.3
		c-33.4-21.3-45.4-2.7-79.7-4.9c-28.2-1.8-47.7-13.1-67.8-13.1c-31,0.1-54,16.6-52.5,45.8c0.9,18.8,12,39.3,27.2,51.4
		c-24.9-4.7-47.9-15-67.5-29.5c-11.5-34.7-21.4-102,60.3-108.2c-50.8-11.7-86.1,20.1-80.6,90.5c-16.8-17.3-30-38.3-38-61.6
		c9.7-40.7,40.2-70,74.3-73.3c54.2-5.3,68.6,52,113.8,73.7C254.3,384.3,298.8,349.8,329.3,287 M318.6,242.2c3.3,8.5,6,17.4,7.9,26.5
		c-11.4,27.9-41.3,76.6-73.1,84.2c-21,5.1-43.1,1.1-61.7-10.9c-29.3-21.2-48.6-61.5-92.7-68.7c-50.6-8.2-83.4,38.8-95.2,64.9
		c-1.8-8.1-3-16.3-3.5-24.8c26.8-37.7,58.6-55.2,92.5-53.2c56.7,3.4,77.9,56.3,107.2,72.4C251.8,360.7,299.1,324.5,318.6,242.2z
		 M242.1,156.4c29.6,15.8,53.9,40.3,69.4,70.1c-5.5,33.7-16.8,60-29.7,77.1c-11.3,14.9-23.9,22.4-36.2,25.4
		c-21,5.1-37.4-1.3-54.1-15.2c-22.1-18.5-40.6-55.1-84.5-63.2c-49.9-9.2-81.2,16.7-107,44.3c1.6-33.8,13.3-65,32.3-90.6
		c25.4-2.7,50.1,1.1,74.8,10c-15.5-12.8-37.6-20-61.5-25.8c15.6-16.4,34.5-29.6,55.6-38.5c35.9,27.2,52.4,66.8,66.6,103.7
		c11.8,30.7,32.6,66.1,62.8,60.8c13.8-2.5,40.3-6.9,45.2-55.3C279,226.9,260.1,182.2,242.1,156.4z"/>
	<path fill-rule="evenodd" clip-rule="evenodd" fill="#FFFFFF" d="M226.7,228.2c20.3,0,36.8,16.5,36.8,36.9
		c0,20.4-16.5,36.9-36.8,36.9c-20.3,0-36.8-16.5-36.8-36.9C189.9,244.7,206.4,228.2,226.7,228.2"/>
	<path fill-rule="evenodd" clip-rule="evenodd" fill="#FFFFFF" d="M154.4,378.5c20.3,0,36.8,16.5,36.8,36.9
		c0,20.4-16.5,36.9-36.8,36.9c-20.3,0-36.8-16.5-36.8-36.9C117.6,395,134.1,378.5,154.4,378.5"/>
</g>
<g id="Labels__x28_HIDE_THIS_x29_">
	<g>
		<path fill="#FFFFFF" d="M0.4,119c0,0,22.4-2.7,45-2.7c23.2,0,45.7,2.7,45.7,2.7v1c0,0-21.4-2.6-45.7-2.6c-24,0-45,2.6-45,2.6V119
			L0.4,119z M7.9,113.9H6.1v-6.8c0-0.9-0.1-1.2-0.3-1.6c-0.2-0.3-0.6-0.4-1-0.4c-0.7,0-1.8,0.6-2.5,1.3v7.5H1.3
			c-0.6,0-0.9-0.4-0.9-1.1v-6.4c0-1.2-0.1-1.7-0.4-2.4l1.8-0.5c0.2,0.5,0.3,0.9,0.3,1.6c0.6-0.5,0.9-0.7,1.3-1
			c0.6-0.3,1.2-0.5,1.9-0.5c1.1,0,2,0.6,2.4,1.4c0.2,0.4,0.2,0.8,0.2,1.3V113.9L7.9,113.9z M81,113.9h-1.8v-6.8
			c0-0.9-0.1-1.2-0.3-1.6c-0.2-0.3-0.6-0.4-1-0.4c-0.7,0-1.8,0.6-2.5,1.3v7.5h-0.9c-0.6,0-0.9-0.4-0.9-1.1v-6.4
			c0-1.2-0.1-1.7-0.4-2.4l1.8-0.5c0.2,0.5,0.3,0.9,0.3,1.6c0.6-0.5,0.9-0.7,1.3-1c0.6-0.3,1.2-0.5,1.9-0.5c1.1,0,2,0.6,2.4,1.4
			c0.2,0.4,0.2,0.8,0.2,1.3V113.9L81,113.9z M92.9,112.3c0-0.1,0.1-0.2,0.2-0.2h1.4c0.1,0,0.2,0.1,0.2,0.2v1.6h-1.6
			c-0.1,0-0.2-0.1-0.2-0.2V112.3L92.9,112.3z M131.8,112.3c0-0.1,0.1-0.2,0.2-0.2h1.4c0.1,0,0.2,0.1,0.2,0.2v1.6H132
			c-0.1,0-0.2-0.1-0.2-0.2V112.3L131.8,112.3z M17.6,109.2h-6.1v0.2c0,0.9,0.1,1.5,0.4,2c0.5,0.8,1.4,1.2,2.3,1.2
			c0.9,0,1.8-0.3,2.5-1l0.7,1.1c-1,0.9-2.2,1.3-3.5,1.3c-2.8,0-4.5-2-4.5-5.4c0-1.8,0.3-2.9,1.2-3.9c0.8-1,1.8-1.4,3-1.4
			c1.1,0,2,0.4,2.7,1.1c0.9,0.9,1.2,2,1.2,4.4V109.2L17.6,109.2z M15.7,107.9c0-1-0.2-1.8-0.6-2.3c-0.3-0.4-0.8-0.7-1.5-0.7
			c-1.4,0-2.1,1.2-2.1,3H15.7L15.7,107.9z M31.6,103.8L28.7,114H27l-1.5-5.5c-0.2-0.7-0.6-2.4-0.6-2.4h-0.1c0,0-0.4,1.7-0.5,2.3
			l-1.5,5.7H21l-2.8-10.1l1.9-0.3l1.3,5.7c0.2,1,0.5,2.5,0.5,2.5H22c0,0,0.2-1.4,0.5-2.3l1.5-5.7h1.9l1.4,5.5
			c0.3,1.1,0.6,2.4,0.6,2.5h0.1c0-0.1,0.3-1.7,0.5-2.4l1.2-5.5H31.6L31.6,103.8z M40.5,112.6l-0.6,1.3H33v-1.3l5.3-7.5h-4.9v-1.4
			h6.9v1.4l-5.1,7.4H40.5L40.5,112.6z M49.1,109.2H43v0.2c0,0.9,0.1,1.5,0.4,2c0.5,0.8,1.4,1.2,2.3,1.2c0.9,0,1.8-0.3,2.5-1l0.7,1.1
			c-1,0.9-2.2,1.3-3.5,1.3c-2.8,0-4.5-2-4.5-5.4c0-1.8,0.3-2.9,1.2-3.9c0.8-1,1.8-1.4,3-1.4c1.1,0,2,0.4,2.7,1.1
			c0.9,0.9,1.2,2,1.2,4.4V109.2L49.1,109.2z M47.2,107.9c0-1-0.2-1.8-0.6-2.3c-0.3-0.4-0.8-0.7-1.5-0.7c-1.4,0-2.1,1.2-2.1,3H47.2
			L47.2,107.9z M58.6,113.1l-0.9,1.3c-0.6-0.2-1.1-0.7-1.4-1.5c-0.3,0.3-1.1,1.3-2.9,1.3c-2,0-3.3-1-3.3-3c0-2.3,1.9-3.6,5.1-3.6
			c0.2,0,0.4,0,0.7,0V107c0-1.2-0.2-2-1.6-2c-1.1,0-2.3,0.5-3.1,1.2l-0.8-1.3c1-0.6,2.3-1.3,4.2-1.3c1.5,0,2.5,0.5,2.9,1.6
			c0.2,0.4,0.2,0.8,0.2,1.8c0,0.7-0.1,2.3-0.1,3.8C57.8,112,57.8,112.6,58.6,113.1L58.6,113.1z M56,108.9c-0.3,0-0.4,0-0.6,0
			c-1.4,0-2.2,0.3-2.6,0.7c-0.4,0.4-0.5,0.8-0.5,1.5c0,1.1,0.6,1.8,1.6,1.8c0.8,0,1.7-0.5,2.1-1.3L56,108.9L56,108.9z M63.1,113.9
			c-0.4,0.2-0.7,0.2-1.1,0.2c-0.7,0-1.2-0.2-1.6-0.8c-0.3-0.4-0.4-0.8-0.4-1.8v-8.3c0-1.4-0.1-2.1-0.2-2.9l1.9-0.4
			c0.2,0.7,0.2,1.6,0.2,2.9v8.2c0,1.1,0.1,1.3,0.3,1.5c0.1,0.1,0.4,0.2,0.6,0.1L63.1,113.9L63.1,113.9z M72.3,113.1l-0.9,1.3
			c-0.6-0.2-1.1-0.7-1.4-1.5c-0.3,0.3-1.1,1.3-2.9,1.3c-2,0-3.3-1-3.3-3c0-2.3,1.9-3.6,5.1-3.6c0.2,0,0.4,0,0.7,0V107
			c0-1.2-0.2-2-1.6-2c-1.1,0-2.3,0.5-3.1,1.2l-0.8-1.3c1-0.6,2.3-1.3,4.2-1.3c1.5,0,2.5,0.5,2.9,1.6c0.2,0.4,0.2,0.8,0.2,1.8
			c0,0.7-0.1,2.3-0.1,3.8C71.4,112,71.5,112.6,72.3,113.1L72.3,113.1z M69.6,108.9c-0.3,0-0.4,0-0.6,0c-1.4,0-2.2,0.3-2.6,0.7
			c-0.4,0.4-0.5,0.8-0.5,1.5c0,1.1,0.6,1.8,1.6,1.8c0.8,0,1.7-0.5,2.1-1.3L69.6,108.9L69.6,108.9z M91.2,113.9h-1.8
			c-0.1-0.3-0.1-0.4-0.2-1c-0.7,0.7-1.5,1.1-2.6,1.1c-2.6,0-4.1-1.9-4.1-5.1c0-2.2,0.7-3.9,2.1-4.8c0.6-0.4,1.2-0.6,2-0.6
			c1,0,1.8,0.3,2.5,1.2c0-0.3,0-1.8,0-2.5v-2.1l1.9,0.3v10.1C90.9,112.2,91,113.3,91.2,113.9L91.2,113.9z M89,111.3V106
			c-0.5-0.6-1.2-1-2.1-1c-0.8,0-1.4,0.4-1.8,1c-0.4,0.7-0.5,1.5-0.5,2.8c0,2,0.2,2.5,0.8,3.1c0.3,0.4,0.8,0.5,1.5,0.5
			C88,112.5,88.7,112,89,111.3L89,111.3z M105.8,104.6c-0.6,0.4-1,0.6-1.7,0.6c-0.3,0-0.4,0-0.9-0.2c0.5,0.7,0.7,1.2,0.7,1.9
			c0,1.5-1,3.1-3.6,3.1c-0.6,0.2-1.6,0.7-1.6,1.1c0,0.3,0.2,0.5,0.7,0.5h1.6c2.6,0,3.6,1.2,3.6,2.8c0,2.2-1.8,3.3-4.3,3.3
			c-2.8,0-4.4-1-4.4-2.7c0-0.4,0.1-0.7,0.2-1l1.8-0.1c-0.1,0.2-0.2,0.5-0.2,0.8c0,1.1,0.9,1.6,2.4,1.6c1.7,0,2.5-0.7,2.5-1.7
			c0-1-0.8-1.5-2.8-1.5c-0.7,0-1.5-0.1-1.9-0.1c-0.9-0.1-1.4-0.6-1.4-1.4c0-1,0.8-1.4,2-1.8c-1.6-0.5-2.4-1.5-2.4-2.9
			c0-2,1.6-3.4,3.9-3.4c0.5,0,1,0,1.6,0.2c0.5,0.2,1.1,0.3,1.5,0.3c0.6,0,1.1-0.2,1.7-0.6L105.8,104.6L105.8,104.6z M101.9,106.9
			c0-1.3-0.6-1.9-1.9-1.9c-1.2,0-1.8,0.6-1.8,1.9c0,1.3,0.7,1.9,1.9,1.9C101.3,108.8,101.9,108.1,101.9,106.9L101.9,106.9z
			 M114.4,108.9c0,3.2-1.7,5.3-4.4,5.3c-2.7,0-4.4-2.1-4.4-5.4c0-3.3,1.7-5.3,4.3-5.3C113,103.5,114.4,105.9,114.4,108.9
			L114.4,108.9z M112.3,109c0-3.1-0.9-4.1-2.4-4.1c-1.6,0-2.3,1.2-2.3,3.7c0,3.1,0.8,4.1,2.4,4.1C111.5,112.8,112.3,111.7,112.3,109
			L112.3,109z M123.7,103.8L120,114h-1.7l-3.6-10.2l1.9-0.3l2,6.1c0.2,0.7,0.4,1.5,0.6,2.2c0.2-0.6,0.4-1.4,0.6-2.2l1.9-5.8H123.7
			L123.7,103.8z M130,103.8l-0.5,1.3h-2v6.1c0,1.3,0.3,1.6,1.3,1.6c0.3,0,0.6-0.1,0.9-0.2l0.2,1.1c-0.6,0.3-1.2,0.4-1.8,0.4
			c-0.7,0-1.4-0.2-1.7-0.5c-0.4-0.4-0.7-0.6-0.7-2.1v-6.5h-1.2l0.4-1.3h0.8c0-0.8,0-1.8,0.1-2.6l1.9-0.4c-0.1,0.7-0.2,2-0.2,3H130
			L130,103.8z M152,112.6l-0.6,1.3h-6.9v-1.3l5.3-7.5h-4.9v-1.4h6.9v1.4l-5.1,7.4H152L152,112.6z M142.8,113.9H141v-6.8
			c0-0.9-0.1-1.2-0.3-1.6c-0.2-0.3-0.6-0.4-1-0.4c-0.7,0-1.8,0.6-2.5,1.3v7.5h-0.9c-0.6,0-0.9-0.4-0.9-1.1v-6.4
			c0-1.2-0.1-1.7-0.4-2.4l1.8-0.5c0.2,0.5,0.3,0.9,0.3,1.6c0.6-0.5,0.9-0.7,1.3-1c0.6-0.3,1.2-0.5,1.9-0.5c1.1,0,2,0.6,2.4,1.4
			c0.2,0.4,0.2,0.8,0.2,1.3V113.9L142.8,113.9z"/>
	</g>
</g>
</svg>
